nColumns=19
nRows=45
DataType=double
version=3
OpenSimVersion=4.1
endheader
time	ground_force_calcn_r_vx	ground_force_calcn_r_vy	ground_force_calcn_r_vz	ground_force_calcn_r_px	ground_force_calcn_r_py	ground_force_calcn_r_pz	ground_force_calcn_r_mx	ground_force_calcn_r_my	ground_force_calcn_r_mz	ground_force_calcn_l_vx	ground_force_calcn_l_vy	ground_force_calcn_l_vz	ground_force_calcn_l_px	ground_force_calcn_l_py	ground_force_calcn_l_pz	ground_force_calcn_l_mx	ground_force_calcn_l_my	ground_force_calcn_l_mz
3.29	27.885	349.904	-58.4236	-0.273883	0	-0.440289	0.0280029	0.351383	-0.0586705	10.4998	191.916	45.0054	-0.319702	0	-0.974882	0.114135	2.08617	0.489217
3.3	28.1806	361.852	-59.8607	-0.273259	0	-0.44006	0.0194849	0.250195	-0.0413893	11.156	191.177	44.8156	-0.320312	0	-0.974684	0.125072	2.14332	0.502435
3.31	27.9889	373.55	-61.2897	-0.272386	0	-0.439801	0.010526	0.140484	-0.0230498	11.6906	190.378	44.551	-0.320784	0	-0.97451	0.134527	2.19072	0.512659
3.32	27.3196	384.809	-62.6982	-0.271285	0	-0.439515	0.0017952	0.0252863	-0.00411998	12.1361	189.501	44.1654	-0.321134	0	-0.974348	0.142715	2.22844	0.519363
3.33	26.2061	395.457	-64.0587	-0.269978	0	-0.439203	-0.00604033	-0.09115	0.0147651	12.5474	188.465	43.5782	-0.321379	0	-0.974174	0.150225	2.25642	0.521745
3.34	24.7087	405.33	-65.3294	-0.268486	0	-0.438875	-0.0124088	-0.203558	0.0328086	12.9861	187.144	42.7002	-0.321538	0	-0.973962	0.157836	2.27459	0.518986
3.35	22.9083	414.291	-66.4605	-0.266828	0	-0.43854	-0.0169321	-0.306212	0.0491226	13.5011	185.414	41.4674	-0.321632	0	-0.973686	0.166225	2.2828	0.510545
3.36	20.8925	422.257	-67.4004	-0.265024	0	-0.438213	-0.0194707	-0.39352	0.0628135	14.1176	183.203	39.8654	-0.32168	0	-0.973334	0.17578	2.28107	0.496367
3.37	18.7478	429.203	-68.0963	-0.263087	0	-0.437908	-0.020117	-0.460549	0.0730696	14.839	180.533	37.9358	-0.32169	0	-0.972902	0.186564	2.26976	0.476949
3.38	16.557	435.142	-68.4991	-0.261033	0	-0.437638	-0.019167	-0.503738	0.0792973	15.6496	177.528	35.7681	-0.321669	0	-0.972403	0.198315	2.24968	0.453262
3.39	14.3916	440.132	-68.5723	-0.258868	0	-0.437416	-0.0170509	-0.521464	0.0812436	16.5166	174.385	33.4788	-0.321613	0	-0.971861	0.210446	2.22192	0.42657
3.4	12.2987	444.281	-68.2984	-0.2566	0	-0.437251	-0.0142418	-0.514473	0.0790888	17.3947	171.329	31.1853	-0.321518	0	-0.97131	0.222128	2.18784	0.39823
3.41	10.2915	447.744	-67.6799	-0.254232	0	-0.437151	-0.0111725	-0.486073	0.0734736	18.2354	168.569	28.9811	-0.321375	0	-0.970784	0.232447	2.14875	0.369422
3.42	8.35268	450.707	-66.7369	-0.251764	0	-0.43712	-0.00819323	-0.442103	0.0654629	18.9965	166.256	26.9222	-0.32118	0	-0.970313	0.240605	2.10576	0.340989
3.43	6.45264	453.362	-65.5049	-0.249204	0	-0.437155	-0.00555695	-0.390431	0.0564122	19.6488	164.46	25.0249	-0.320929	0	-0.969919	0.246099	2.05984	0.313434
3.44	4.56646	455.877	-64.0306	-0.246567	0	-0.437255	-0.0034058	-0.340006	0.0477559	20.177	163.16	23.276	-0.320622	0	-0.969606	0.248799	2.0119	0.287013
3.45	2.68351	458.365	-62.3681	-0.243879	0	-0.437409	-0.00175571	-0.299889	0.0408048	20.577	162.256	21.6479	-0.320268	0	-0.969371	0.248932	1.9629	0.261887
3.46	0.808422	460.877	-60.5735	-0.241175	0	-0.437605	-0.000488223	-0.278333	0.0365816	20.8516	161.599	20.1132	-0.319875	0	-0.969199	0.246968	1.91399	0.238222
3.47	-1.04508	463.418	-58.704	-0.238493	0	-0.437831	0.000636527	-0.282253	0.0357547	21.0056	161.027	18.6514	-0.319456	0	-0.969072	0.24346	1.86635	0.216175
3.48	-2.85912	465.973	-56.8153	-0.235871	0	-0.438069	0.00194387	-0.316807	0.0386278	21.0399	160.41	17.2498	-0.319018	0	-0.968977	0.238841	1.82094	0.195817
3.49	-4.61871	468.518	-54.9584	-0.233347	0	-0.438306	0.00379733	-0.385197	0.0451847	20.9504	159.671	15.8988	-0.318564	0	-0.968897	0.233288	1.77798	0.177037
3.5	-6.31608	471.032	-53.175	-0.23095	0	-0.43853	0.00655271	-0.488679	0.0551672	20.7321	158.802	14.5886	-0.31809	0	-0.968822	0.226765	1.73695	0.159568
3.51	-7.94663	473.506	-51.4925	-0.228703	0	-0.43873	0.0105174	-0.626689	0.0681509	20.3866	157.841	13.3091	-0.31759	0	-0.968738	0.219194	1.69709	0.143098
3.52	-9.50058	475.943	-49.9247	-0.226629	0	-0.438904	0.0159123	-0.797144	0.0836176	19.9275	156.853	12.0529	-0.317053	0	-0.968635	0.21061	1.65775	0.127384
3.53	-10.9565	478.36	-48.4745	-0.224742	0	-0.439048	0.0228264	-0.996602	0.100991	19.3797	155.909	10.8177	-0.316476	0	-0.968505	0.201198	1.61863	0.112308
3.54	-12.2799	480.778	-47.1383	-0.223055	0	-0.439165	0.0311702	-1.22036	0.119652	18.7734	155.079	9.60895	-0.315849	0	-0.968344	0.191243	1.57979	0.0978859
3.55	-13.4266	483.218	-45.9068	-0.221575	0	-0.439258	0.0406491	-1.46295	0.138983	18.1352	154.428	8.4385	-0.315162	0	-0.968154	0.181012	1.54138	0.0842267
3.56	-14.3493	485.702	-44.7674	-0.220305	0	-0.43933	0.0507775	-1.71874	0.158417	17.4839	154.01	7.32175	-0.314405	0	-0.967941	0.170687	1.50353	0.0714787
3.57	-15.0081	488.253	-43.7058	-0.21924	0	-0.439387	0.0609431	-1.98265	0.177476	16.83	153.868	6.27367	-0.313567	0	-0.967715	0.160382	1.46628	0.059785
3.58	-15.3829	490.898	-42.71	-0.218366	0	-0.439431	0.0705253	-2.2506	0.195811	16.1784	154.028	5.30675	-0.312638	0	-0.96749	0.150172	1.42972	0.0492585
3.59	-15.4773	493.666	-41.7713	-0.217663	0	-0.439468	0.0790022	-2.51987	0.213217	15.53	154.509	4.43251	-0.311607	0	-0.967277	0.140118	1.39404	0.0399919
3.6	-15.3094	496.579	-40.8836	-0.217104	0	-0.439498	0.085981	-2.78891	0.229612	14.8836	155.321	3.66348	-0.310464	0	-0.967092	0.130278	1.35953	0.0320667
3.61	-14.9023	499.65	-40.0425	-0.21666	0	-0.439522	0.0911797	-3.0571	0.244999	14.2383	156.471	3.01175	-0.3092	0	-0.966948	0.120702	1.32644	0.0255313
3.62	-14.2829	502.887	-39.245	-0.216299	0	-0.439542	0.0944242	-3.32458	0.259448	13.5954	157.968	2.48573	-0.307807	0	-0.966859	0.111424	1.29466	0.0203722
3.63	-13.4808	506.293	-38.489	-0.215985	0	-0.439558	0.0956417	-3.59197	0.273066	12.9577	159.816	2.08846	-0.306279	0	-0.966836	0.10246	1.26371	0.016514
3.64	-12.5289	509.866	-37.7735	-0.215688	0	-0.439569	0.0948532	-3.86007	0.285974	12.3264	162.017	1.81703	-0.304615	0	-0.966888	0.0938016	1.23292	0.0138273
3.65	-11.4672	513.596	-37.0989	-0.215378	0	-0.439575	0.0921966	-4.12931	0.298275	11.6994	164.563	1.66368	-0.302815	0	-0.967023	0.0854293	1.20164	0.0121482
3.66	-10.3433	517.461	-36.4665	-0.215023	0	-0.439572	0.0879385	-4.39946	0.310039	11.0709	167.44	1.62006	-0.300884	0	-0.967243	0.0773387	1.16969	0.0113173
3.67	-9.20415	521.429	-35.8765	-0.2146	0	-0.439559	0.0824238	-4.66943	0.321276	10.4341	170.636	1.68197	-0.298832	0	-0.967552	0.0695535	1.13746	0.011212
3.68	-8.09183	525.457	-35.3245	-0.214087	0	-0.439535	0.0760356	-4.9375	0.33193	9.78362	174.141	1.85047	-0.296668	0	-0.967948	0.0621258	1.10579	0.0117504
3.69	-7.04306	529.512	-34.7989	-0.213472	0	-0.439498	0.0691881	-5.20171	0.341851	9.11764	177.939	2.12849	-0.29441	0	-0.968431	0.0551255	1.07583	0.0128689
3.7	-6.08679	533.575	-34.279	-0.212744	0	-0.439454	0.0622866	-5.46011	0.350779	8.43948	182.005	2.51347	-0.292078	0	-0.968995	0.0486249	1.04864	0.0144816
3.71	-5.2409	537.641	-33.7373	-0.211903	0	-0.439406	0.05567	-5.71094	0.358364	7.75829	186.294	2.99257	-0.289698	0	-0.969628	0.0426913	1.02511	0.0164671
3.72	-4.51372	541.707	-33.1453	-0.210953	0	-0.439363	0.0495987	-5.95251	0.364215	7.08599	190.752	3.54563	-0.287298	0	-0.970317	0.0373811	1.00628	0.0187044
3.73	-3.91007	545.754	-32.481	-0.2099	0	-0.439331	0.0442974	-6.18288	0.367979	6.43125	195.329	4.15399	-0.284902	0	-0.971042	0.0327077	0.993395	0.0211261
